<svg width="28" height="24" viewBox="0 0 28 24" fill="none" xmlns="http://www.w3.org/2000/svg">
<path d="M13.0509 3.53165L13.8335 4.51535L14.6161 3.53165C15.8967 1.92189 17.8624 1 19.8335 1C23.5437 1 26.3335 3.74645 26.3335 7.27273C26.3335 10.2412 24.4808 13.3416 21.804 16.212C19.3397 18.8545 16.3092 21.161 13.8335 22.8045C11.3578 21.161 8.32733 18.8545 5.863 16.212C3.18619 13.3416 1.3335 10.2412 1.3335 7.27273C1.3335 3.74645 4.12329 1 7.8335 1C9.80461 1 11.7703 1.92189 13.0509 3.53165Z" fill="#C9112A"/>
<path d="M13.0509 3.53165L13.8335 4.51535L14.6161 3.53165C15.8967 1.92189 17.8624 1 19.8335 1C23.5437 1 26.3335 3.74645 26.3335 7.27273C26.3335 10.2412 24.4808 13.3416 21.804 16.212C19.3397 18.8545 16.3092 21.161 13.8335 22.8045C11.3578 21.161 8.32733 18.8545 5.863 16.212C3.18619 13.3416 1.3335 10.2412 1.3335 7.27273C1.3335 3.74645 4.12329 1 7.8335 1C9.80461 1 11.7703 1.92189 13.0509 3.53165Z" fill="url(#paint0_linear_332_3467)"/>
<path d="M13.0509 3.53165L13.8335 4.51535L14.6161 3.53165C15.8967 1.92189 17.8624 1 19.8335 1C23.5437 1 26.3335 3.74645 26.3335 7.27273C26.3335 10.2412 24.4808 13.3416 21.804 16.212C19.3397 18.8545 16.3092 21.161 13.8335 22.8045C11.3578 21.161 8.32733 18.8545 5.863 16.212C3.18619 13.3416 1.3335 10.2412 1.3335 7.27273C1.3335 3.74645 4.12329 1 7.8335 1C9.80461 1 11.7703 1.92189 13.0509 3.53165Z" stroke="#C9112A" stroke-width="2"/>
<path d="M13.0509 3.53165L13.8335 4.51535L14.6161 3.53165C15.8967 1.92189 17.8624 1 19.8335 1C23.5437 1 26.3335 3.74645 26.3335 7.27273C26.3335 10.2412 24.4808 13.3416 21.804 16.212C19.3397 18.8545 16.3092 21.161 13.8335 22.8045C11.3578 21.161 8.32733 18.8545 5.863 16.212C3.18619 13.3416 1.3335 10.2412 1.3335 7.27273C1.3335 3.74645 4.12329 1 7.8335 1C9.80461 1 11.7703 1.92189 13.0509 3.53165Z" stroke="url(#paint1_linear_332_3467)" stroke-width="2"/>
<defs>
<linearGradient id="paint0_linear_332_3467" x1="13.8335" y1="0" x2="13.8335" y2="24" gradientUnits="userSpaceOnUse">
<stop stop-color="#F20000"/>
<stop offset="1" stop-color="#F20000" stop-opacity="0"/>
</linearGradient>
<linearGradient id="paint1_linear_332_3467" x1="13.8335" y1="0" x2="13.8335" y2="24" gradientUnits="userSpaceOnUse">
<stop stop-color="#F20000"/>
<stop offset="1" stop-color="#F20000" stop-opacity="0"/>
</linearGradient>
</defs>
</svg>
