<svg width="20" height="22" viewBox="0 0 20 22" fill="none" xmlns="http://www.w3.org/2000/svg">
<path d="M12.7094 13.935V7.83588H3.25843C3.25843 10.7289 2.62688 11.7999 0.666504 11.7999V14.056C3.97043 14.056 5.59458 11.5402 5.59458 9.37667C5.89945 9.37667 10.2421 9.37667 10.2421 9.37667V13.935H12.7094Z" fill="#130D1A" stroke="black" stroke-width="0.5"/>
<path fill-rule="evenodd" clip-rule="evenodd" d="M13.3683 0C13.6417 0 13.9107 0.034805 14.1741 0.102172C15.4156 0.630147 16.607 1.7605 17.5506 3.52141C18.6085 5.51026 19.2557 8.10743 19.2557 11.0419L19.2555 11.1338C19.2528 11.5513 19.2377 11.9632 19.2108 12.3683C19.0473 14.7593 18.4461 16.8787 17.5506 18.5623C16.7529 20.0535 15.7826 21.0919 14.748 21.6963C14.3054 21.8949 13.8435 22 13.3683 22C12.8119 22 12.2734 21.8558 11.7631 21.5862C11.2841 21.2765 10.8298 20.8763 10.4059 20.3967C9.82096 19.7253 9.32935 18.9405 8.9373 18.1179C8.58882 17.3803 8.30256 16.5861 8.07854 15.7792C8.05155 15.6806 8.02576 15.5813 8.00098 15.4816H9.10796C9.25666 15.9398 9.42923 16.3804 9.62805 16.7878C9.92675 17.4055 10.2939 17.9697 10.7295 18.4173C11.2211 18.9279 11.7625 19.2494 12.3226 19.3566C12.9635 19.4795 13.6294 19.3219 14.2704 18.8491C14.9984 18.3101 15.6643 17.3898 16.1683 16.1007C16.7222 14.6981 17.0458 12.9614 17.0458 11.0419C17.0458 9.12234 16.7222 7.38564 16.1683 5.98304C15.6581 4.69707 14.9984 3.77356 14.2704 3.23773C13.6356 2.7681 12.9635 2.60735 12.3226 2.73028C11.7625 2.83744 11.2211 3.15894 10.7295 3.66955C10.2939 4.11712 9.92675 4.68131 9.62805 5.29908C9.56381 5.4307 9.50197 5.5658 9.44269 5.70383H8.25528C8.44419 5.10607 8.67153 4.5216 8.9373 3.96898C9.32935 3.14318 9.81474 2.36151 10.4059 1.69015C11.0165 0.999215 11.6902 0.473276 12.41 0.144984C12.7219 0.0495996 13.042 0 13.3683 0Z" fill="#65D0DD"/>
</svg>
